<svg xmlns="http://www.w3.org/2000/svg" width="38" height="33" viewBox="0 0 38 33">
    <g fill="none" fill-rule="nonzero">
        <path fill="#FC7242" d="M2.459 11.704a6.306 6.306 0 0 1 8.917 0l11.84 11.839-8.918 8.917-11.84-11.838a6.306 6.306 0 0 1 0-8.918z"/>
        <path fill="#FF906A" d="M5.287 14.533a6.306 6.306 0 0 1 8.918 0l9.01 9.01-8.917 8.917-9.01-9.01a6.306 6.306 0 0 1 0-8.917z"/>
        <path fill="#F5A623" d="M36.002 1.839a6.306 6.306 0 0 1 0 8.917L14.298 32.46 5.38 23.543 27.084 1.839a6.306 6.306 0 0 1 8.918 0z"/>
        <path fill="#FFC100" d="M23.308 14.533a6.306 6.306 0 0 1 0 8.917l-9.01 9.01-8.918-8.917 9.01-9.01a6.306 6.306 0 0 1 8.918 0z"/>
    </g>
</svg>
